<?xml version="1.0" standalone="no"?>
<!DOCTYPE svg PUBLIC "-//W3C//DTD SVG 20010904//EN"
 "http://www.w3.org/TR/2001/REC-SVG-20010904/DTD/svg10.dtd">
<svg version="1.0" xmlns="http://www.w3.org/2000/svg"
 width="596.000000pt" height="596.000000pt" viewBox="0 0 596.000000 596.000000"
 preserveAspectRatio="xMidYMid meet">
<metadata>
Created by potrace 1.14, written by Peter Selinger 2001-2017
</metadata>
<g transform="translate(0.000000,596.000000) scale(0.100000,-0.100000)"
fill="#000000" stroke="none">
<path d="M490 5940 c-215 -37 -405 -205 -464 -409 -14 -49 -16 -304 -16 -2556
0 -2254 2 -2507 16 -2556 53 -181 213 -341 396 -394 52 -15 266 -16 2556 -17
2330 0 2502 1 2558 17 202 58 366 235 409 440 22 106 22 4915 0 5020 -41 195
-195 367 -390 435 l-70 25 -2475 1 c-1361 1 -2495 -2 -2520 -6z m3347 -2082
c50 -46 15 -138 -51 -138 -51 1 -94 50 -80 93 19 64 86 87 131 45z m-2338
-148 c10 -5 24 -23 31 -40 33 -79 -65 -146 -125 -85 -66 65 12 169 94 125z
m2238 -12 c30 -34 36 -63 19 -96 -38 -73 -146 -46 -146 35 0 70 83 109 127 61z
m181 6 c52 -36 46 -115 -11 -139 -86 -36 -153 78 -79 135 30 24 60 25 90 4z
m-2720 -287 l2 -288 98 3 97 3 3 183 2 182 65 0 65 0 0 -255 0 -255 -235 0
-235 0 0 360 0 361 68 -3 67 -3 3 -288z m3812 3 l0 -290 160 0 160 0 0 185 0
185 70 0 70 0 0 -255 0 -255 -300 0 -300 0 0 353 c0 195 3 357 7 360 3 4 35 7
70 7 l63 0 0 -290z m-575 249 c69 -83 104 -195 112 -366 l6 -123 -72 0 -71 0
0 53 c0 79 -20 214 -40 273 -10 29 -36 79 -57 111 -21 32 -42 64 -46 71 -6 9
9 12 67 12 71 0 75 -1 101 -31z m323 -326 l2 -353 -210 0 -210 0 0 70 0 70
140 0 140 0 0 285 0 286 68 -3 67 -3 3 -352z m-3958 141 c50 -21 95 -69 121
-128 28 -65 30 -202 5 -291 -34 -115 -159 -324 -194 -325 -16 0 -111 71 -112
83 0 4 17 26 38 50 53 59 82 98 82 111 0 7 -18 10 -49 8 -166 -12 -296 118
-277 276 8 68 27 110 72 156 63 65 130 88 224 79 30 -3 71 -11 90 -19z m1385
-4 c40 -40 16 -120 -41 -134 -28 -7 -79 16 -88 39 -34 90 62 160 129 95z m197
-19 c31 -61 -17 -130 -82 -116 -72 16 -85 121 -17 150 42 18 79 5 99 -34z
m742 16 c48 -26 101 -93 116 -145 5 -20 10 -74 10 -119 l0 -83 49 0 c102 0
111 18 111 220 l0 150 70 0 70 0 0 -155 c0 -195 12 -225 86 -225 14 0 36 11
49 25 25 24 25 27 25 190 l0 165 70 0 70 0 0 -165 c0 -163 0 -166 25 -190 30
-30 64 -32 99 -4 l26 20 0 170 0 169 70 0 70 0 0 -180 c0 -193 -7 -229 -53
-278 -65 -70 -185 -88 -267 -40 -44 25 -46 26 -70 9 -63 -45 -128 -51 -201
-20 -41 18 -54 20 -75 10 -14 -6 -76 -11 -144 -11 l-120 0 -31 -62 c-35 -69
-66 -115 -112 -165 l-30 -32 -53 42 c-30 23 -54 46 -54 51 0 5 20 30 44 56 24
26 51 61 60 78 l17 32 -56 0 c-125 0 -212 51 -254 151 -65 150 16 319 174 360
51 14 164 1 209 -24z m-1154 -46 c0 -67 -1 -69 -27 -76 -40 -10 -62 -33 -74
-77 -13 -49 2 -99 38 -128 24 -19 40 -20 294 -20 l269 0 0 180 0 180 65 0 65
0 0 -250 0 -250 -338 0 -339 0 -62 31 c-125 62 -170 199 -114 342 26 65 127
134 201 136 21 1 22 -3 22 -68z m3268 -544 c66 -61 -24 -174 -96 -120 -38 28
-50 67 -31 101 30 53 81 61 127 19z m191 -3 c37 -47 24 -102 -29 -124 -77 -32
-141 57 -89 124 16 20 29 26 59 26 30 0 43 -6 59 -26z m-236 -355 c55 -28 57
-35 57 -294 0 -259 -2 -266 -57 -294 -16 -8 -620 -11 -2218 -11 -2053 0 -2199
1 -2226 17 -53 32 -59 60 -59 286 0 226 6 259 54 288 30 18 86 19 2229 19
1600 0 2204 -3 2220 -11z"/>
<path d="M622 3355 c-58 -25 -79 -112 -42 -172 22 -36 67 -53 145 -53 73 0 79
6 73 83 -7 79 -35 130 -80 146 -40 14 -56 13 -96 -4z"/>
<path d="M2925 3357 c-32 -15 -50 -44 -60 -99 -8 -44 27 -98 75 -115 52 -18
135 -16 154 3 31 31 13 135 -32 185 -32 36 -91 47 -137 26z"/>
<path d="M2215 2358 c-3 -8 -4 -66 -3 -129 3 -106 4 -114 23 -114 19 0 20 7
20 125 0 111 -2 125 -18 128 -9 2 -19 -3 -22 -10z"/>
<path d="M2305 2358 c-3 -8 -4 -66 -3 -129 3 -106 4 -114 23 -114 19 0 20 7
20 125 0 111 -2 125 -18 128 -9 2 -19 -3 -22 -10z"/>
<path d="M2850 2240 c0 -131 0 -131 23 -128 20 3 23 10 27 68 5 61 6 65 30 65
24 0 25 -4 30 -65 4 -57 8 -65 25 -65 18 0 20 6 19 72 0 88 -13 107 -66 100
l-37 -5 -3 42 c-2 34 -7 42 -25 44 -23 3 -23 3 -23 -128z"/>
<path d="M3450 2310 c0 -11 -4 -20 -10 -20 -5 0 -10 -9 -10 -20 0 -11 5 -20
10 -20 6 0 10 -19 10 -42 0 -62 19 -93 55 -93 35 0 47 29 15 38 -16 4 -20 13
-20 51 0 39 3 46 20 46 13 0 20 7 20 20 0 13 -7 20 -20 20 -13 0 -20 7 -20 20
0 15 -7 20 -25 20 -18 0 -25 -5 -25 -20z"/>
<path d="M944 2257 c3 -19 14 -58 24 -88 14 -46 21 -54 43 -57 25 -3 28 1 40
48 14 56 20 55 38 -8 11 -38 15 -43 38 -40 24 3 29 12 50 78 28 92 28 100 3
100 -14 0 -22 -11 -29 -37 -6 -21 -11 -43 -11 -50 0 -6 -4 -14 -9 -18 -5 -3
-17 20 -26 51 -14 47 -19 55 -37 52 -17 -2 -25 -14 -34 -51 -19 -75 -22 -74
-44 11 -8 32 -15 42 -31 42 -19 0 -20 -4 -15 -33z"/>
<path d="M1221 2268 c0 -13 10 -52 22 -88 19 -57 25 -65 47 -65 21 0 28 8 41
50 17 52 21 50 37 -15 7 -30 13 -35 37 -35 26 0 29 5 51 79 29 97 29 98 2 94
-17 -2 -25 -14 -34 -51 -19 -75 -22 -75 -44 11 -9 36 -15 43 -33 40 -17 -2
-24 -15 -36 -63 -15 -64 -20 -62 -41 23 -8 31 -16 42 -30 42 -14 0 -20 -7 -19
-22z"/>
<path d="M1497 2283 c-2 -5 7 -45 21 -91 24 -78 27 -83 51 -80 21 2 28 11 39
51 8 27 16 47 18 44 2 -2 10 -24 17 -48 11 -36 17 -45 39 -47 26 -3 28 1 52
80 31 101 31 98 6 98 -22 0 -23 -2 -40 -69 -13 -50 -22 -45 -40 22 -11 40 -16
48 -34 45 -16 -2 -24 -16 -37 -62 -17 -66 -21 -65 -39 12 -9 39 -16 52 -30 52
-11 0 -21 -3 -23 -7z"/>
<path d="M1840 2282 c0 -6 14 -47 31 -92 26 -68 30 -86 20 -106 -15 -33 -15
-34 13 -34 21 0 28 12 64 113 22 61 38 115 35 120 -2 4 -12 7 -22 7 -13 0 -22
-13 -31 -47 -7 -27 -16 -52 -20 -56 -4 -4 -16 16 -26 45 -15 40 -25 54 -42 56
-12 2 -22 -1 -22 -6z"/>
<path d="M2043 2283 c-7 -2 -13 -13 -13 -23 0 -16 4 -17 29 -7 32 12 61 4 61
-16 0 -9 -15 -17 -36 -20 -47 -8 -64 -23 -64 -58 0 -36 21 -47 88 -46 l52 1 0
78 c0 66 -3 79 -19 88 -20 10 -76 12 -98 3z m77 -107 c0 -20 -27 -39 -45 -32
-18 7 -20 32 -2 39 24 10 47 7 47 -7z"/>
<path d="M2400 2275 c-19 -23 -4 -35 29 -22 23 8 33 8 45 -2 24 -20 19 -28
-22 -35 -21 -3 -47 -15 -57 -27 -18 -19 -18 -23 -4 -47 13 -25 20 -27 77 -28
l62 -1 0 73 c0 53 -4 77 -16 88 -20 21 -97 21 -114 1z m88 -101 c-5 -25 -35
-41 -49 -27 -18 18 -3 43 26 43 19 0 26 -5 23 -16z"/>
<path d="M2704 2266 c-21 -33 -13 -51 31 -77 44 -26 40 -45 -9 -42 -38 2 -52
-19 -20 -31 44 -17 100 1 104 34 5 38 -2 52 -35 66 -46 19 -48 47 -2 42 23 -2
32 1 32 12 0 10 -13 16 -42 18 -36 3 -44 -1 -59 -22z"/>
<path d="M3065 2265 c-56 -55 -18 -155 60 -155 53 0 85 36 85 95 0 59 -25 85
-80 85 -30 0 -47 -7 -65 -25z m91 -31 c25 -38 9 -79 -31 -79 -28 0 -30 3 -33
40 -3 29 1 43 14 52 25 18 31 17 50 -13z"/>
<path d="M3265 2265 c-56 -55 -18 -155 60 -155 52 0 85 36 85 93 0 33 -6 49
-23 65 -33 31 -90 30 -122 -3z m93 -37 c18 -38 1 -78 -33 -78 -41 0 -54 56
-22 98 15 19 40 10 55 -20z"/>
<path d="M3694 2277 c-3 -8 -4 -47 -2 -88 3 -66 5 -74 23 -74 17 0 20 8 23 55
3 59 14 80 43 80 15 0 19 -10 21 -67 3 -60 5 -68 23 -68 18 0 20 8 23 63 4 77
-14 112 -56 112 -16 0 -34 -6 -41 -12 -11 -10 -14 -10 -18 0 -6 16 -32 15 -39
-1z"/>
<path d="M3900 2275 c-19 -23 -4 -35 29 -22 23 8 33 8 45 -2 24 -20 19 -28
-22 -35 -21 -3 -47 -15 -57 -27 -18 -19 -18 -23 -4 -47 16 -30 61 -41 84 -22
9 7 15 8 20 0 3 -5 13 -10 21 -10 21 0 20 143 -2 164 -20 21 -97 21 -114 1z
m88 -101 c-5 -25 -35 -41 -49 -27 -18 18 -3 43 26 43 19 0 26 -5 23 -16z"/>
<path d="M4071 2268 c0 -13 10 -52 22 -88 19 -56 26 -65 48 -68 25 -3 28 1 39
48 14 57 21 56 39 -8 11 -38 15 -43 38 -40 24 3 29 12 50 78 28 92 28 100 4
100 -19 0 -41 -43 -41 -81 0 -41 -20 -26 -35 26 -14 48 -20 56 -38 53 -17 -2
-24 -15 -36 -63 -15 -64 -20 -62 -41 23 -8 31 -16 42 -30 42 -14 0 -20 -7 -19
-22z"/>
<path d="M4455 2266 c-35 -35 -35 -97 0 -131 35 -36 105 -32 105 5 0 14 -8 17
-37 16 -37 -1 -38 0 -41 39 -4 48 17 69 55 54 22 -8 24 -7 21 13 -5 35 -69 38
-103 4z"/>
<path d="M4605 2265 c-56 -55 -18 -155 60 -155 53 0 85 36 85 95 0 59 -25 85
-80 85 -30 0 -47 -7 -65 -25z m91 -31 c25 -38 9 -79 -31 -79 -28 0 -30 3 -33
40 -3 29 1 43 14 52 25 18 31 17 50 -13z"/>
<path d="M4790 2200 c0 -83 1 -90 20 -90 18 0 20 7 20 58 0 60 11 82 42 82 14
0 18 -11 20 -67 3 -60 5 -68 23 -68 17 0 20 8 23 57 3 58 20 85 46 75 11 -4
16 -25 18 -69 3 -55 5 -63 23 -63 17 0 20 8 23 60 4 96 -33 137 -95 104 -18
-10 -26 -10 -35 -1 -15 15 -65 16 -74 1 -4 -8 -9 -8 -17 0 -29 29 -37 11 -37
-79z"/>
<path d="M2570 2205 c0 -11 12 -15 45 -15 33 0 45 4 45 15 0 11 -12 15 -45 15
-33 0 -45 -4 -45 -15z"/>
<path d="M3560 2205 c0 -11 12 -15 45 -15 33 0 45 4 45 15 0 11 -12 15 -45 15
-33 0 -45 -4 -45 -15z"/>
<path d="M1774 2156 c-9 -24 4 -48 23 -44 24 4 24 52 0 56 -9 2 -20 -4 -23
-12z"/>
<path d="M4352 2161 c-20 -12 -10 -46 13 -46 14 0 20 7 20 24 0 27 -13 35 -33
22z"/>
</g>
</svg>
